<?xml version="1.0" encoding="UTF-8" standalone="no"?>
<!DOCTYPE svg PUBLIC "-//W3C//DTD SVG 1.1//EN" "http://www.w3.org/Graphics/SVG/1.1/DTD/svg11.dtd">
<svg width="100%" height="100%" viewBox="0 0 364 35" version="1.1" xmlns="http://www.w3.org/2000/svg" xmlns:xlink="http://www.w3.org/1999/xlink" xml:space="preserve" xmlns:serif="http://www.serif.com/" style="fill-rule:evenodd;clip-rule:evenodd;stroke-linejoin:round;stroke-miterlimit:2;">
    <g transform="matrix(1,0,0,1,-44,-43)">
        <path d="M108.4,73C105.3,76.4 101,77.7 94.8,77.7L82.4,77.7L82.4,43.7L94.9,43.7C101,43.7 105.4,45.1 108.5,48.4C111.3,51.3 113.2,56.5 113.2,60.7C113.2,65.1 111.3,69.9 108.4,73M102.2,51.9C100.5,50.5 98.8,50 94.5,50L89.3,50L89.3,71.6L94.1,71.6C98.5,71.6 100.4,71 102.2,69.5C104.4,67.6 106,64.1 106,60.7C106,57.3 104.5,54 102.2,51.9" style="fill:rgb(172,25,57);fill-rule:nonzero;"/>
        <path d="M213.3,43.7L213.3,66.1L194.8,43.7L188,43.7L188,77.7L194.9,77.7L194.9,54.5L214.2,77.7L220.2,77.7L220.2,43.7L213.3,43.7Z" style="fill:rgb(172,25,57);fill-rule:nonzero;"/>
        <path d="M226.5,43.7L226.5,50L237.5,50L237.5,77.7L244.2,77.7L244.2,50L255.3,50L255.3,43.7L226.5,43.7Z" style="fill:rgb(172,25,57);fill-rule:nonzero;"/>
        <path d="M61.9,43.7L57.8,43.7L43.7,77.7L50.5,77.7L59.9,55.2L66.6,71.5L61.9,71.5L61.9,77.7L76,77.7L61.9,43.7Z" style="fill:rgb(172,25,57);fill-rule:nonzero;"/>
        <path d="M166.7,43.7L162.6,43.7L148.5,77.7L155.3,77.7L164.7,55.2L171.4,71.5L166.7,71.5L166.7,77.7L180.8,77.7L166.7,43.7Z" style="fill:rgb(172,25,57);fill-rule:nonzero;"/>
        <path d="M134.1,43.7L134.1,50L138.8,50L132.1,66.2L122.7,43.7L115.9,43.7L130,77.7L134.1,77.7L148.2,43.7L134.1,43.7Z" style="fill:rgb(172,25,57);fill-rule:nonzero;"/>
    </g>
    <g transform="matrix(1,0,0,1,-44,-43)">
        <path d="M284.4,77.4C284.2,77.2 284.1,76.9 284.1,76.6L284.1,44.9C284.1,44.5 284.2,44.3 284.4,44C284.6,43.8 284.9,43.7 285.2,43.7L287.4,43.7C288,43.7 288.4,43.9 288.6,44.4L304.7,69.2L304.7,44.9C304.7,44.5 304.8,44.3 305,44C305.2,43.8 305.5,43.7 305.8,43.7L308.1,43.7C308.5,43.7 308.7,43.8 308.9,44C309.1,44.2 309.2,44.5 309.2,44.9L309.2,76.6C309.2,76.9 309.1,77.2 308.9,77.4C308.7,77.6 308.4,77.7 308.1,77.7L306,77.7C305.5,77.7 305.1,77.5 304.8,77L288.7,52.5L288.7,76.6C288.7,76.9 288.6,77.2 288.4,77.4C288.2,77.6 287.9,77.7 287.6,77.7L285.3,77.7C284.9,77.7 284.6,77.6 284.4,77.4" style="fill:rgb(90,90,90);fill-rule:nonzero;"/>
        <path d="M321.2,75.3C319.2,73.3 318.2,70.6 318.1,67.1L318.1,63.3C318.2,59.8 319.3,57 321.2,55.1C323.2,53.1 325.9,52.2 329.3,52.2C331.6,52.2 333.6,52.6 335.2,53.5C336.8,54.3 338,55.4 338.8,56.6C339.6,57.8 340,59.1 340.1,60.3C340.1,60.6 340,60.9 339.8,61.1C339.6,61.3 339.3,61.4 339,61.4L336.7,61.4C336.4,61.4 336.1,61.3 336,61.2C335.8,61.1 335.7,60.8 335.5,60.4C334.9,58.8 334.2,57.7 333.2,57.1C332.2,56.4 330.9,56.1 329.4,56.1C327.4,56.1 325.8,56.7 324.6,58C323.4,59.2 322.8,61.1 322.7,63.7L322.7,67.1C322.8,69.7 323.4,71.6 324.6,72.8C325.8,74 327.4,74.6 329.4,74.6C330.9,74.6 332.2,74.3 333.2,73.6C334.2,72.9 335,71.8 335.5,70.3C335.7,69.9 335.8,69.6 336,69.5C336.2,69.4 336.4,69.3 336.7,69.3L339,69.3C339.3,69.3 339.6,69.4 339.8,69.6C340,69.8 340.1,70.1 340.1,70.4C340,71.6 339.6,72.8 338.8,74.1C338,75.3 336.8,76.4 335.2,77.2C333.6,78 331.6,78.5 329.2,78.5C325.8,78.2 323.1,77.2 321.2,75.3" style="fill:rgb(90,90,90);fill-rule:nonzero;"/>
        <path d="M351.5,69.2L351.5,56.3L347.7,56.3C347.4,56.3 347.1,56.2 346.9,56C346.7,55.8 346.6,55.5 346.6,55.2L346.6,53.5C346.6,53.2 346.7,52.9 346.9,52.7C347.1,52.5 347.4,52.4 347.7,52.4L351.5,52.4L351.5,44.3C351.5,44 351.6,43.7 351.8,43.5C352,43.3 352.3,43.2 352.6,43.2L354.9,43.2C355.2,43.2 355.5,43.3 355.7,43.5C355.9,43.7 356,44 356,44.3L356,52.4L362,52.4C362.3,52.4 362.6,52.5 362.8,52.7C363,52.9 363.1,53.2 363.1,53.5L363.1,55.2C363.1,55.5 363,55.8 362.8,56C362.6,56.2 362.3,56.3 362,56.3L356,56.3L356,68.8C356,70.4 356.3,71.6 356.8,72.5C357.4,73.3 358.3,73.7 359.5,73.7L362.5,73.7C362.8,73.7 363.1,73.8 363.3,74C363.5,74.2 363.6,74.5 363.6,74.8L363.6,76.5C363.6,76.8 363.5,77.1 363.3,77.3C363.1,77.5 362.8,77.6 362.5,77.6L359.1,77.6C354.1,77.7 351.5,74.9 351.5,69.2" style="fill:rgb(90,90,90);fill-rule:nonzero;"/>
        <path d="M372,77.4C371.8,77.2 371.7,76.9 371.7,76.6L371.7,53.6C371.7,53.3 371.8,53 372,52.8C372.2,52.6 372.5,52.5 372.8,52.5L375,52.5C375.3,52.5 375.6,52.6 375.8,52.8C376,53 376.1,53.3 376.1,53.6L376.1,55.3C377.8,53.1 380.1,52 383.1,52C386.7,52 389.2,53.5 390.7,56.5C391.5,55.1 392.6,54.1 394,53.2C395.4,52.4 397,52 398.8,52C401.5,52 403.6,52.9 405.3,54.7C407,56.5 407.8,59.1 407.8,62.6L407.8,76.6C407.8,76.9 407.7,77.2 407.5,77.4C407.3,77.6 407,77.7 406.7,77.7L404.4,77.7C404.1,77.7 403.8,77.6 403.6,77.4C403.4,77.2 403.3,76.9 403.3,76.6L403.3,63C403.3,60.5 402.8,58.7 401.7,57.6C400.6,56.5 399.3,55.9 397.5,55.9C396,55.9 394.7,56.5 393.6,57.6C392.5,58.7 391.9,60.5 391.9,63L391.9,76.6C391.9,76.9 391.8,77.2 391.6,77.4C391.4,77.6 391.1,77.7 390.8,77.7L388.5,77.7C388.2,77.7 387.9,77.6 387.7,77.4C387.5,77.2 387.4,76.9 387.4,76.6L387.4,63C387.4,60.5 386.9,58.7 385.8,57.6C384.7,56.5 383.3,55.9 381.7,55.9C380.2,55.9 378.9,56.5 377.8,57.6C376.7,58.7 376.1,60.5 376.1,63L376.1,76.7C376.1,77 376,77.3 375.8,77.5C375.6,77.7 375.3,77.8 375,77.8L372.7,77.8C372.5,77.7 372.3,77.6 372,77.4" style="fill:rgb(90,90,90);fill-rule:nonzero;"/>
    </g>
</svg>
